<?xml version="1.0" encoding="utf-8"?>
<svg version="1.1" id="Ebene_1" xmlns="http://www.w3.org/2000/svg" x="0px" y="0px"
   viewBox="0 0 874.7 454.1" >
<style type="text/css">
  .st0{fill:none;stroke-width:2;}
</style>
<g id="g1" transform="matrix(-0.995, 0.105, -0.105, -0.995, 874.694, 442.044)">
  <g id="g1a" transform="translate(192.144 4.281)">
    <path id="p1" class="st0" d="M78.3,62.6c49.8,59.3,48.9,95.1,31.4,108.9c-7,5.5-16.8,7.5-28.5,5.8
      c-27.7-4-62.5-28.7-77.6-74.6C-9.6,62.8,1.2,26,18.9,22.2C24,21.1,43.1,20.8,78.3,62.6z"/>
  </g>
  <g id="g2" transform="translate(149.08 87.792)">
    <path id="p2" class="st0" d="M182.9,42c101.9,33,162.5,67.6,170.7,97.4c3.3,12-2,22.6-15.7,31.6
      c-42.5,27.9-157,33.8-253.4-2.5C8.2,139.8-20.6,75.7,9.3,43.4C35.3,15.2,98.6,14.7,182.9,42z"/>
  </g>
  <g id="g3" transform="translate(85.53 190.706)">
    <path id="p3" class="st0" d="M390.3,78.7c163.3,49.3,240.9,98,213,133.4c-36.4,46.3-243.3,59.3-413.1,9.5
      C78.5,188.9,3.5,120.4-2,75.6c-1.7-13.5,2.1-32,29.4-43.4C60.3,18.6,151.1,6.4,390.3,78.7z"/>
  </g>
  <g id="g4" transform="translate(6.961 138.74)">
    <path id="p4" class="st0" d="M327.1,21.9c222.4-0.6,383.1,26.5,452.5,76.3c29.9,21.5,42.1,47,35.1,73.7
      c-23.2,88.3-237.6,170.2-490,147.6C127.4,301.9-10.5,204.9-1.9,129.9C5.8,61.8,125.7,22.5,327.1,21.9z"/>
  </g>
  <g id="g5" transform="translate(86.368 170.871)">
    <path id="p5" class="st0" d="M226.1,22.3c198.1-3.8,331.9,16.3,367.3,55.3c17.8,19.6,5.5,38.6-8,51.2
      c-43.6,40.6-170.8,78.6-320.7,68.8C129.6,188.9-5.1,131.2-2.3,83.3C-0.1,47.3,83.1,25.1,226.1,22.3z"/>
  </g>
</g>
</svg>
